<?xml version="1.0" encoding="UTF-8"?>
<!-- Generator: Adobe Illustrator 26.5.0, SVG Export Plug-In . SVG Version: 6.00 Build 0)  -->
<svg xmlns:inkscape="http://www.inkscape.org/namespaces/inkscape" xmlns:dc="http://purl.org/dc/elements/1.1/" xmlns:rdf="http://www.w3.org/1999/02/22-rdf-syntax-ns#" xmlns:sodipodi="http://sodipodi.sourceforge.net/DTD/sodipodi-0.dtd" xmlns:cc="http://creativecommons.org/ns#" xmlns:svg="http://www.w3.org/2000/svg" xmlns="http://www.w3.org/2000/svg" xmlns:xlink="http://www.w3.org/1999/xlink" version="1.1" id="Layer_1" inkscape:export-xdpi="299.75104" x="0px" y="0px" viewBox="0 0 127.6 62.9" style="enable-background:new 0 0 127.6 62.9;" xml:space="preserve">
<style type="text/css">
	.st0{fill:#0082C9;}
</style>
<path id="path1052" inkscape:connector-curvature="0" inkscape:export-filename="Nextcloud Hub logo variants.png" inkscape:export-xdpi="300" inkscape:export-ydpi="300" class="st0" d="  M63.8,3.8c-12.6,0-23.3,8.5-26.6,20.1c-2.8-6.1-9-10.4-16.2-10.4c-9.9,0-18,8.1-18,18s8.1,18,18,18c7.2,0,13.4-4.3,16.3-10.4  c3.3,11.6,14,20.1,26.6,20.1c12.5,0,23.1-8.4,26.5-19.8c2.9,6,9.1,10.2,16.2,10.2c9.9,0,18-8.1,18-18s-8.1-18-18-18  c-7.1,0-13.2,4.2-16.2,10.2C87,12.2,76.3,3.8,63.8,3.8z M63.8,14.4c9.5,0,17.1,7.6,17.1,17.1s-7.6,17.1-17.1,17.1S46.7,41,46.7,31.5  C46.7,21.9,54.3,14.4,63.8,14.4z M21,24c4.2,0,7.4,3.3,7.4,7.4c0,4.2-3.3,7.4-7.4,7.4c-4.2,0-7.4-3.3-7.4-7.4  C13.6,27.3,16.8,24,21,24z M106.5,24c4.2,0,7.4,3.3,7.4,7.4c0,4.2-3.3,7.4-7.4,7.4c-4.2,0-7.4-3.3-7.4-7.4S102.3,24,106.5,24z"></path>
</svg>
